<svg id="Arbovirosis" xmlns="http://www.w3.org/2000/svg" width="40" height="40" viewBox="0 0 40 40">
  <defs>
    <style>
      .cls-1 {
          fill: #fff;
          opacity: 0.3;
        }
  
        .cls-2 {
          fill: #fdfdfe;
        }
    </style>
  </defs>
  <path id="Path_1073" data-name="Path 1073" class="cls-2" d="M66.608,83.475c-.043-.29-.394-.324-.625-.351-.643-.073-1.29-.117-1.938-.133a16.571,16.571,0,0,0-2.667.085h-.052q1.841-.427,3.715-.7a.2.2,0,0,0,.069-.389,8.679,8.679,0,0,0-4.44-.44,39,39,0,0,0-5.956.893q-.812.186-1.625.4c-.045-.226-.1-.451-.125-.677-.032-.318-.043-.637-.064-.956.153-.415.194-.926-.211-.962-.3-.027-.323.285-.367.5a5,5,0,0,0-.142.648c-.073.226-.1.476-.163.707a3.671,3.671,0,0,1-.544,1.2c-.06.087-.462.152-.57.189a14.528,14.528,0,0,0-2.335.829c-.038-.368-.059-.735-.091-1.078-.09-.961-.081-1.927-.147-2.888,0-.066,0-.132,0-.2a.162.162,0,0,0-.323,0,32.954,32.954,0,0,1,.037,4.174.881.881,0,0,0-.317.192l-.02,0a2.82,2.82,0,0,0,.265-.294.026.026,0,0,0-.029-.038,1.183,1.183,0,0,0-.39.184,1.462,1.462,0,0,1,.169-.147c.033-.023.014-.088-.03-.071a1.858,1.858,0,0,0-.335.18,3.539,3.539,0,0,1,.3-.288c.021-.018,0-.046-.024-.042a1.07,1.07,0,0,0-.495.291,6.014,6.014,0,0,0-.46.407.645.645,0,0,0-.077.02,2.507,2.507,0,0,1,.293-.266.04.04,0,0,0-.041-.069c-.04.022-.076.046-.115.069a3.756,3.756,0,0,1,.434-.352.04.04,0,0,0-.041-.069,2.179,2.179,0,0,0-.494.332.033.033,0,0,0-.04-.046.7.7,0,0,0-.312.171,1.22,1.22,0,0,1,.353-.412c.018-.012.007-.047-.016-.038a1.2,1.2,0,0,0-.625.707,10.372,10.372,0,0,0-.922,1l-.04.048c-.5-.5-1-1-1.469-1.522-.344-.387-.848-1.265-1.32-1.327-.317-.042-.511.253-.46.668-.125,1.776-.257,3.539-.483,5.3-.175,1.355-.408,2.7-.6,4.047a.057.057,0,0,0-.024.019l-.024.032-.008.01c-.115.154-.233.3-.35.455a3.968,3.968,0,0,1-.675-.522c-.041-.033-.1.02-.059.059a6.7,6.7,0,0,0,.6.633,19.337,19.337,0,0,1-1.627,1.821c-.482.471-1.007.856-1.514,1.275a.155.155,0,0,0-.031.17l.008.02c-.3.164-.575.446-.867.62a7.465,7.465,0,0,1-1.244.515.465.465,0,0,0-.047.1.682.682,0,0,0-.138.188,1.421,1.421,0,0,0-.077.8c0,.025.034.016.036-.006.023-.252.043-.495.245-.63a.385.385,0,0,0,.033.034,3.552,3.552,0,0,0,1.18-.568,3.234,3.234,0,0,0,.953-.855c.011.031.024.062.035.094.022.064.078.09.122.056a11.922,11.922,0,0,0,1.49-1.427,15.891,15.891,0,0,0,1.619-2.106l.009,0a3.275,3.275,0,0,0,1.162-.206c.79-.2,1.521-.638,2.3-.866a.968.968,0,0,0,.023.3.021.021,0,0,0,.005.033l0,0c.02.085.046.168.071.244a.03.03,0,0,0,.008.024l.011.033c.019.055.039.113.062.173-.372.285-.746.567-1.129.838a3.908,3.908,0,0,1-.96.6,4.1,4.1,0,0,1-1.49-.08.028.028,0,0,0-.01.055,6.8,6.8,0,0,0,1.315.257,1.178,1.178,0,0,0,.675-.276c.578-.368,1.144-.758,1.7-1.162a1.033,1.033,0,0,0,.287.377l.009,0,0,.006c-.014.019.017.043.033.025l0,0,.008.011a14.689,14.689,0,0,0-1.161,1.572,15.968,15.968,0,0,0-1.623,3.03.076.076,0,0,0,.132.077c.921-1.426,1.785-3.614,3.648-3.931a.192.192,0,0,0,.053-.018c.068,0,.137,0,.207.006a1.116,1.116,0,0,0,.708-.1.956.956,0,0,0,.4-.6,1.215,1.215,0,0,0,.083-.121,1.584,1.584,0,0,0-.065-1.754.137.137,0,0,0,.011-.041,4.745,4.745,0,0,0,.184-.956,3.286,3.286,0,0,0,.408-.243l.031.021q0,1.217,0,2.433c0,.936-.01,1.872-.009,2.808,0,.434-.014.879-.015,1.324a.331.331,0,0,0,.134.05,15.09,15.09,0,0,0-.146,3.353.335.335,0,0,0,.091.02c-.055.217-.116.432-.182.646a4.11,4.11,0,0,1-.488,1.256.207.207,0,0,0,.035.284,4.335,4.335,0,0,1-.22.421c-.142.223-.392.413-.468.666a.157.157,0,0,0-.006.053c-.038.034-.076.069-.115.1a.9.9,0,0,0-.255.254c-.137.255-.024.413.128.627a.047.047,0,0,0,.087-.023.885.885,0,0,0-.07-.249c-.026-.1-.042-.178.045-.238a1.28,1.28,0,0,1,.157-.073,1.006,1.006,0,0,0,.342-.268,1.544,1.544,0,0,0,.49-.652,2.338,2.338,0,0,0,.23-.6l0,0a2.418,2.418,0,0,0,.4-1.257c.054-.321.089-.644.12-.967q.065-.018.132-.044a8.086,8.086,0,0,0,.111-2.42,7.511,7.511,0,0,0-.057-.97c.047-.024.093-.049.135-.074-.029-.407-.067-.814-.093-1.212-.067-1.04-.142-2.078-.187-3.12-.028-.654-.037-1.306-.041-1.96a3.121,3.121,0,0,0,1.026.231c.1.008.193.012.283.011.058.328.112.657.15.987a4.218,4.218,0,0,0,.119,1.032q.008.838.068,1.674c.026.368.076.734.1,1.1.011.183-.018.3.137.41.1.072.193-.092.1-.163-.171-.125-.147-.766-.167-.981q-.041-.441-.076-.883-.039-.5-.072-1a.05.05,0,0,0,.081-.051,10.538,10.538,0,0,1-.189-1.385c-.038-.249-.085-.5-.135-.743.056,0,.111-.007.164-.014,0,.456.574.879.978.96l.064.01a.332.332,0,0,0,.6-.076c.041-.152.086-.3.129-.455a.31.31,0,0,0,.223-.024,6.741,6.741,0,0,0,.741-.39c-.019.385-.033.767-.043,1.143a28.906,28.906,0,0,0,.3,5.623.25.25,0,0,0-.088.356,46.518,46.518,0,0,0,2.424,4.286c.729,1.07,1.441,2.395,2.67,2.948,0,0,.008.01.013.014a1.3,1.3,0,0,1,.465.514c.076.214.028.437.117.654a.023.023,0,0,0,.045-.012c-.046-.306.073-.606.043-.911a1.027,1.027,0,0,0-.193-.478.261.261,0,0,0-.152-.334,7.7,7.7,0,0,1-2.945-2.923,11.025,11.025,0,0,1-1.92-3.651c-.02-1.973-.143-3.957-.211-5.931-.014-.408-.019-.806-.019-1.2a2.459,2.459,0,0,0,.6.279.5.5,0,0,0,.437-.044,3.036,3.036,0,0,0,2.015,1.142h.026c.121,1.491.3,2.976.523,4.453-.154,0-.316.136-.248.3a3.073,3.073,0,0,0,1.992,1.544,16.8,16.8,0,0,0,2.752.718c.5.152,1,.293,1.5.437a.23.23,0,0,0,.167-.009c.114.128.343.13.517.144.215.017.343.047.431.268a4.171,4.171,0,0,1,.183.632c0,.008.014,0,.013,0-.04-.25-.039-.5-.074-.754a.492.492,0,0,0-.175-.363.862.862,0,0,0-.42-.145,2.371,2.371,0,0,0-.342-.051.226.226,0,0,0-.233-.2,10.686,10.686,0,0,1-2.136-.322c-.476-.135-.948-.284-1.41-.458a5.849,5.849,0,0,1-2.273-1.586q-.207-2.336-.3-4.672a4.3,4.3,0,0,0,.74.314,2.553,2.553,0,0,0,1.445.163.8.8,0,0,0,.3-.238h.025a5.028,5.028,0,0,0,.673.123,2.223,2.223,0,0,0,1.093-.023.634.634,0,0,0,.248-.2,1.368,1.368,0,0,0,.985-.063,1.089,1.089,0,0,0,.377-.36l.022-.01a1.409,1.409,0,0,0,.807-.329,1.371,1.371,0,0,0,.112-.11A7.53,7.53,0,0,0,64,91.316c.226-.208.025-.511-.225-.544a8.491,8.491,0,0,1-1.795-.455.8.8,0,0,0-.148-.265,2.077,2.077,0,0,0-.982-.426c-.14-.036-.292-.07-.448-.1a1.329,1.329,0,0,0-.2-.392,2.445,2.445,0,0,0-1.091-.756,2.258,2.258,0,0,0-1.619-1.319c-.248.027-.5.053-.744.076l-.706.061c0-.022-.007-.045-.01-.068l-.012-.178c1.9-.24,3.792-.5,5.66-.922A13.1,13.1,0,0,0,64.6,84.994C64.989,84.8,66.7,84.07,66.608,83.475ZM45.85,93.289a.491.491,0,0,1,.218.181c-.086-.048-.172-.1-.259-.143Zm.191.243-.1.076c-.089-.05-.181-.1-.271-.146l.1-.1C45.859,93.422,45.949,93.478,46.041,93.532Zm-.375.269-.247-.117.131-.117c.083.048.164.1.248.142Zm.079.223-.083.061-.126-.066.083-.057Zm-1.025-.631.161.114q-.061.066-.119.133c-.066-.033-.131-.069-.19-.106Q44.645,93.463,44.72,93.394Zm-.235.083-.03-.022.17-.128,0,0C44.578,93.377,44.53,93.426,44.485,93.476Zm.7.236L45.1,93.8c-.08-.036-.168-.075-.257-.117l.116-.12C45.034,93.611,45.111,93.662,45.19,93.712Zm-.162-.225.027-.027c.04-.039.081-.076.123-.113l.257.154-.142.121Q45.16,93.557,45.028,93.487Zm-.22.227c.06.028.118.056.166.083l.076.043-.125.119c-.072-.042-.144-.09-.217-.138Zm.358.192.184.1-.16.1-.156-.088Zm.112-.023-.054-.027.082-.071c.068.041.137.082.207.12l-.087.056Zm.475-.633-.035.027-.124-.069A1.254,1.254,0,0,1,45.754,93.25Zm-.387-.069c.036,0,.072,0,.107.008.066.041.134.081.2.121l-.119.092c-.094-.049-.188-.095-.282-.142Zm-.15-.006-.04.036-.072-.036C45.141,93.175,45.179,93.176,45.216,93.176Zm-.126.117q-.075.073-.148.149c-.057-.031-.113-.063-.169-.1.019-.017.037-.034.057-.05.039-.032.08-.061.121-.09ZM43.911,92.9a1.276,1.276,0,0,1-.02-.162,1.065,1.065,0,0,1,.085.109l-.006,0C43.95,92.868,43.931,92.885,43.911,92.9Zm.024.107c-.005-.021-.012-.042-.016-.063l.074-.048L44,92.889c.015.023.028.047.041.071a.436.436,0,0,0-.041.08s0,0,0,0Zm.133,0c.011.023.023.045.032.068l.009.021-.08-.039A.4.4,0,0,0,44.068,93Zm.026.407-.006-.01c-.018-.035-.034-.072-.051-.108a1.1,1.1,0,0,0,.113.074Zm.082-.1a1.317,1.317,0,0,1-.141-.082.207.207,0,0,0,.033-.037c.01-.015-.007-.039-.025-.032a.229.229,0,0,0-.052.031c-.014-.037-.026-.074-.038-.111a2.1,2.1,0,0,0,.19.1c.017.043.033.089.047.136Zm-.329-.882a15.727,15.727,0,0,0-1.519.663,8.209,8.209,0,0,1-1.408.444,1.034,1.034,0,0,1-.441.009c.061-.1.125-.192.185-.291-.006.044-.013.088-.019.131a.282.282,0,0,0,.279-.09c.048-.055.1-.112.14-.172a31.919,31.919,0,0,0,.6-4.23,28.2,28.2,0,0,0,.264-5.106.155.155,0,0,0,.141-.06c.238-.3,2.155,2.108,2.435,2.406l.148.159-.025.032a1.116,1.116,0,0,0-.319.7,2.162,2.162,0,0,0-.246.311.875.875,0,0,0-.128.64,1.641,1.641,0,0,0-.4.975c-.237.476-.27,1.157.137,1.418a.094.094,0,0,0,.019.006v0a1.26,1.26,0,0,0,.607.824.15.15,0,0,0,.189-.073.639.639,0,0,0,.458.276,1.018,1.018,0,0,0,.124.049.907.907,0,0,0-.211.036.18.18,0,0,0-.077.051.077.077,0,0,0-.071.007C44.413,91.72,43.924,92.047,43.847,92.425Zm.557,1.15c-.007-.023-.013-.045-.017-.068l.022-.017c.013.01.027.019.04.029Zm.128,0c.064.038.132.072.2.1l-.086.1c-.066-.043-.133-.085-.2-.121Zm.266.511a1.2,1.2,0,0,1-.185-.158l.018-.02c.074.043.148.085.22.125Zm.22.125a1.286,1.286,0,0,1-.128-.065l.064-.055.135.078Zm.12.045.056-.028c.044.024.089.049.134.072A1.121,1.121,0,0,1,45.138,94.253Zm.3-.005-.144-.08c.055-.031.109-.063.162-.1l.127.071Zm.1.053c.051-.033.1-.068.15-.1l.073.041A.689.689,0,0,1,45.538,94.3Zm.315-.115-.083-.044.089-.065.079.035A.585.585,0,0,1,45.853,94.186Zm.045-.276-.127-.06c.039-.031.076-.063.113-.095l.127.069Zm.221-.2L46,93.646c.025-.024.052-.048.076-.072a.026.026,0,0,0,.007-.015l.025.015A.415.415,0,0,1,46.119,93.712Zm.215-9.042c.013-.023.027-.045.04-.068a.05.05,0,0,0,0-.023.543.543,0,0,1,.236-.19A3.27,3.27,0,0,0,46.333,84.67Zm2-.21c-.07.042-.138.087-.206.134l.068-.086c.026-.033-.008-.09-.049-.063l-.053.036,0-.014c.026-.032.052-.063.081-.1a.038.038,0,0,0-.037-.064l-.009,0a6.742,6.742,0,0,0,.108-.982q.018.2.037.408.033.357.075.715Zm2.284,6.711a2.094,2.094,0,0,0-.207-.286c.061-.066.122-.139.182-.218a2.823,2.823,0,0,0,.362-.642l.01.013Q50.78,90.6,50.616,91.171Zm.928-3.619.077-.012-.029.07-.04,0C51.516,87.62,51.508,87.558,51.544,87.552Zm-.25,3.653c.056-.187.116-.372.174-.558.09.1.183.195.28.288C51.6,91.031,51.445,91.115,51.294,91.206Zm.528-8.01A2.307,2.307,0,0,0,52.3,82.5c.081-.185.194-.4.286-.62q.038.158.083.316c.063.227.115.469.191.7C52.516,82.993,52.168,83.091,51.822,83.2Zm1.484,4.234q-.4.037-.8.078,0-.049,0-.1.435-.062.871-.119Zm1.047-.091.1-.188.6-.076c.007.068.014.136.022.2Z" transform="translate(-30.792 -71.504)"/>
</svg>
