<svg id="Filariasis" xmlns="http://www.w3.org/2000/svg" width="75" height="75" viewBox="0 0 40 40">
  <defs>
    <style>
      .cls-1, .cls-2 {
        fill: #fff;
      }

      .cls-1 {
        opacity: 0.3;
      }
    </style>
  </defs>
  <g id="Group_491" data-name="Group 491" transform="translate(4 -4.668)">
    <path id="Path_1083" data-name="Path 1083" class="cls-2" d="M146.405,16.346c-.568-1.371-1.017-2.455-.352-4.059a1.171,1.171,0,0,0-2.163-.9,6.93,6.93,0,0,0,.352,5.851c.568,1.371,1.017,2.454.352,4.059s-1.747,2.053-3.119,2.621a6.7,6.7,0,0,0-4.034,9.739c.568,1.371,1.017,2.454.352,4.059a1.17,1.17,0,1,0,2.163.9,6.93,6.93,0,0,0-.352-5.851c-.568-1.371-1.017-2.455-.352-4.059s1.748-2.053,3.119-2.621a6.93,6.93,0,0,0,4.386-3.888A6.93,6.93,0,0,0,146.405,16.346Z" transform="translate(-115.265 0)"/>
    <path id="Path_1084" data-name="Path 1084" class="cls-2" d="M15.908,75.668a8.271,8.271,0,0,1-11.7,0,6.383,6.383,0,0,1,0-9.027,4.872,4.872,0,0,1,6.89,0,3.668,3.668,0,0,1,0,5.181,2.7,2.7,0,0,1-3.814,0,1.923,1.923,0,0,1,0-2.72,1.17,1.17,0,0,0-1.655-1.655,4.264,4.264,0,0,0,0,6.031,5.038,5.038,0,0,0,7.125,0,6.012,6.012,0,0,0,0-8.492,7.213,7.213,0,0,0-10.2,0,8.724,8.724,0,0,0,0,12.338,10.612,10.612,0,0,0,15.008,0,1.17,1.17,0,1,0-1.655-1.655Z" transform="translate(0 -44.058)"/>
    <circle id="Ellipse_17" data-name="Ellipse 17" class="cls-2" cx="1.899" cy="1.899" r="1.899" transform="translate(17.459 12.315)"/>
    <circle id="Ellipse_18" data-name="Ellipse 18" class="cls-2" cx="1.519" cy="1.519" r="1.519" transform="translate(15.024 17.156)"/>
    <path id="Path_1085" data-name="Path 1085" class="cls-2" d="M132.029,49.654a2.278,2.278,0,1,0-2.278,2.279A2.278,2.278,0,0,0,132.029,49.654Z" transform="translate(-107.578 -30.979)"/>
  </g>
</svg>
