<svg xmlns="http://www.w3.org/2000/svg" width="84" height="81.15" viewBox="0 0 84 81.15">
  <g id="Group_683" data-name="Group 683" transform="translate(-19.326 -30.5)">
    <path id="Path_1143" data-name="Path 1143" d="M480.366,47.633h-2.435a12.927,12.927,0,0,0-1.863-4.558l1.7-1.7a2.6,2.6,0,1,0-3.677-3.677l-1.682,1.682a12.929,12.929,0,0,0-4.58-1.925V35.1a2.6,2.6,0,1,0-5.2,0v2.331a12.924,12.924,0,0,0-4.621,1.9l-1.641-1.641a2.6,2.6,0,1,0-3.677,3.677l1.641,1.641a12.927,12.927,0,0,0-1.9,4.621H450.1a2.6,2.6,0,0,0,0,5.2h2.351a12.929,12.929,0,0,0,1.925,4.58L452.694,59.1a2.6,2.6,0,0,0,3.677,3.677l1.7-1.7a12.926,12.926,0,0,0,4.558,1.863v2.435a2.6,2.6,0,1,0,5.2,0V62.911a12.927,12.927,0,0,0,4.517-1.883l1.745,1.745a2.6,2.6,0,1,0,3.677-3.677l-1.745-1.745a12.926,12.926,0,0,0,1.883-4.517h2.455a2.6,2.6,0,0,0,0-5.2ZM465.181,58.97a8.789,8.789,0,1,1,8.789-8.789A8.789,8.789,0,0,1,465.181,58.97Z" transform="translate(-379.64 -2)" fill="#fff"/>
    <path id="Path_1144" data-name="Path 1144" d="M80.056,159.59a38.3,38.3,0,0,0-5.073-.5,33.32,33.32,0,0,1-3.805-.338c-.166-.026-1.113-.246-3.444-2.029-1.038-.795-2.084-1.69-3.046-2.543-.009-5.277-.234-14.707-3.951-19.645a2.6,2.6,0,0,0-3.6-.545,18.521,18.521,0,0,0-4.933,5.126,22.911,22.911,0,0,0-3.68-4.134,2.6,2.6,0,0,0-3.637.19c-4.825,5.256-6.648,11.143-7.98,15.441-.308.995-.6,1.946-.9,2.781-4.219,3.2-12.316,10.713-16.086,15.723a2.6,2.6,0,0,0-.517,1.4,31.173,31.173,0,0,0,5.739,20.843A29.478,29.478,0,0,0,40.68,202.044,2.6,2.6,0,0,0,43,201.592c2.066-1.617,10.684-9.816,13.993-12.978,2.681,1,8.252,3.09,11.457,4.311a10.315,10.315,0,0,0,3.693.689h.041v2.115a6,6,0,1,0,12,0v-10.2a2.6,2.6,0,0,0-.056-.538,2.6,2.6,0,0,0-1.45-2.035c-.876-.424-2.147-1.046-3.591-1.768l.368-.668a2.6,2.6,0,1,0-4.553-2.512l-.452.82c-1.921-1-3.775-1.995-5.162-2.806.966-1.088,2.636-2.144,3.918-1.98a67.648,67.648,0,0,1,7.312,1.774c.584.162,1.143.318,1.668.461l-.3.939a2.6,2.6,0,1,0,4.948,1.6l1.037-3.2a2.6,2.6,0,0,0,.193-.5A13.32,13.32,0,0,0,86.559,164.3,10.135,10.135,0,0,0,80.056,159.59ZM57.884,140.224a36.4,36.4,0,0,1,1.518,9.849,9.14,9.14,0,0,0-3.389-.493h0a22.318,22.318,0,0,0-.906-4.518A13.594,13.594,0,0,1,57.884,140.224Zm19.5,52.051a15.05,15.05,0,0,0,1.6-.955v4.408a.8.8,0,1,1-1.6,0ZM81.9,170.8a68.542,68.542,0,0,0-8.039-1.921,9.487,9.487,0,0,0-6.751,2.091,9.163,9.163,0,0,0-3.744,5.6,2.6,2.6,0,0,0,1.032,2.492c2.3,1.69,8.845,5.027,12.853,7.017-1.878,1.656-4.351,2.97-6.958,1.977-4.326-1.648-12.93-4.862-13.017-4.894a2.6,2.6,0,0,0-2.709.559c-3.044,2.919-10.66,10.164-13.762,12.9-8.183-2.862-16.822-10.885-16.259-25a103.348,103.348,0,0,1,15.136-14.489,2.6,2.6,0,0,0,.9-1.156c.46-1.163.861-2.459,1.286-3.832a36.974,36.974,0,0,1,5.1-11.327,16.969,16.969,0,0,1,3.937,11.3,2.6,2.6,0,0,0,2.51,2.645c.788.027,1.454.022,2.042.017,1.666-.015,2,.014,2.52.4.309.232,1,.859,1.736,1.523l.6.539.058.052c3.648,3.275,7.138,6.145,10,6.592a38.029,38.029,0,0,0,4.358.395,33.482,33.482,0,0,1,4.444.431,5,5,0,0,1,2.994,2.381,7.856,7.856,0,0,1,1.2,4.114C82.9,171.082,82.408,170.944,81.9,170.8Z" transform="translate(0 -90.494)" fill="#fff"/>
    <circle id="Ellipse_23" data-name="Ellipse 23" cx="2.236" cy="2.236" r="2.236" transform="translate(55.799 70.723)" fill="#fff"/>
  </g>
</svg>
