<svg id="Malaria" xmlns="http://www.w3.org/2000/svg" width="75" height="75" viewBox="0 0 40 40">
    <defs>
      <style>
        .cls-1 {
          fill: #fff;
          opacity: 0.3;
        }
  
        .cls-2 {
          fill: #fdfdfe;
        }
      </style>
    </defs>
    
    <path id="Path_1072" data-name="Path 1072" class="cls-2" d="M227.663,51.863a.144.144,0,0,0-.166-.117l-4.871.835-2.793-.683a.109.109,0,0,0-.1.031l-4.9,1.511a.756.756,0,0,0-.043-.618,1.235,1.235,0,0,0,1.043-1.127s.01.005.014,0c.076-.018.1-.206.045-.42s-.153-.373-.229-.355c0,0,0,.006-.008.007a1.25,1.25,0,0,0-.161-.211l1.554-1.589h0l1.254-.764a.033.033,0,0,0,.011-.045L218.3,48.3a.032.032,0,0,0-.044-.011l-1.267.771s0,.006-.006.008l-1.554,1.588a1.237,1.237,0,0,0-.224-.162s.009-.006.009-.01c.016-.076-.145-.175-.36-.221s-.4-.022-.419.054c0,.007.006.014.007.022a1.234,1.234,0,0,0-1.1,1.066.755.755,0,0,0-.571-.044l1.422-4.99a.109.109,0,0,0,.029-.1l-.744-2.778.729-4.888a.144.144,0,0,0-.121-.163l-.013,0a.144.144,0,0,0-.163.121l-.729,4.89a.123.123,0,0,0,0,.022.108.108,0,0,0,0,.062l.733,2.735L212.395,51.6l-.4.044-5.76-2.844a.109.109,0,0,0-.1-.047l-2.866.232-4.677-1.6a.144.144,0,0,0-.182.089l0,.012a.144.144,0,0,0,.089.182l4.679,1.6a.16.16,0,0,0,.022,0,.107.107,0,0,0,.06.014l2.822-.228,5.36,2.646-8.28.906h0l-.217.024c-3.7.4-6.617,1.427-6.523,2.285s3.166,1.224,6.863.82c3.376-.369,5.658-2.7,7.5-3.523l1.157-.127-1.251,1.279a.753.753,0,0,0-.18.741q-.506.393-1.057.868L202.4,56.9a.106.106,0,0,0-.1.027L200.315,59l-4.56,1.906a.144.144,0,0,0-.077.188l.005.012a.144.144,0,0,0,.188.077l4.562-1.907a.141.141,0,0,0,.04-.027c.011-.006.024-.005.033-.015l1.961-2.043,6.472-1.767c-.6.542-1.233,1.141-1.868,1.791-3.006,3.073-4.985,6.011-4.42,6.565s3.46-1.49,6.467-4.562q.6-.615,1.144-1.217l-1.368,5.479-2,2.005c-.01.009-.009.023-.014.034a.141.141,0,0,0-.026.04l-1.807,4.6a.144.144,0,0,0,.081.186l.012,0a.143.143,0,0,0,.186-.081l1.806-4.6,2.031-2.036a.1.1,0,0,0,.025-.1l1.5-6.02c.554-.636,1.043-1.242,1.46-1.8a.753.753,0,0,0,.737-.2l1.242-1.27-.1,1.144c-.784,1.858-3.062,4.19-3.358,7.573-.324,3.7.11,6.768.969,6.843s1.818-2.867,2.142-6.571c.006-.072.012-.144.019-.217h0l.73-8.343,2.814,5.4-.167,2.827a.11.11,0,0,0,.016.06.122.122,0,0,0,0,.022l1.7,4.643a.144.144,0,0,0,.184.085l.012,0a.144.144,0,0,0,.085-.184l-1.7-4.641.169-2.871a.109.109,0,0,0-.049-.1l-3.021-5.8.026-.3,5.234-1.615,2.75.673a.107.107,0,0,0,.061,0,.129.129,0,0,0,.023,0l4.873-.836a.144.144,0,0,0,.117-.166Z" transform="translate(-191.484 -34.273)"/>
</svg>