<svg id="Vector" xmlns="http://www.w3.org/2000/svg" width="40" height="40" viewBox="0 0 40 40">
  <defs>
    <style>
      .cls-1 {
          fill: #fff;
          opacity: 0.3;
        }
  
        .cls-2 {
          fill: #fdfdfe;
        }
    </style>
  </defs>
  <g id="Group_490" data-name="Group 490" transform="translate(4 3.954)">
    <g id="Group_453" data-name="Group 453" transform="translate(0.008 0.046)">
      <g id="Group_452" data-name="Group 452" transform="translate(0 0)">
        <path id="Path_1074" data-name="Path 1074" class="cls-2" d="M10.379,2.179,8.654,1.316V.046H7.588v1.27l-1.6.8-1.6-.8V.046H3.322v1.27l-1.838.919a.533.533,0,0,0-.295.477V4.845H.123V5.911H1.6l1.725.863V9.11a.533.533,0,0,0,.295.477l1.838.919v1.27H6.521v-1.27L8.359,9.59a.533.533,0,0,0,.295-.48V6.774l1.838-.916a.533.533,0,0,0,.295-.48V3.245h1.066V2.179ZM2.256,5.048V3.041l1.6-.8,1.6.8V5.048l-1.6.8ZM7.588,8.781l-1.6.8-1.6-.8V6.774l1.6-.8,1.6.8ZM9.72,5.048l-1.6.8-1.6-.8V3.041l1.6-.8,1.6.8Z" transform="translate(-0.123 -0.046)"/>
      </g>
    </g>
    <g id="Group_455" data-name="Group 455" transform="translate(12.805 0.046)">
      <g id="Group_454" data-name="Group 454" transform="translate(0 0)">
        <rect id="Rectangle_1151" data-name="Rectangle 1151" class="cls-2" width="1.066" height="1.6"/>
      </g>
    </g>
    <g id="Group_457" data-name="Group 457" transform="translate(14.938 0.046)">
      <g id="Group_456" data-name="Group 456" transform="translate(0 0)">
        <rect id="Rectangle_1152" data-name="Rectangle 1152" class="cls-2" width="1.066" height="1.6"/>
      </g>
    </g>
    <g id="Group_459" data-name="Group 459" transform="translate(7.473 11.243)">
      <g id="Group_458" data-name="Group 458">
        <rect id="Rectangle_1153" data-name="Rectangle 1153" class="cls-2" width="1.066" height="1.6"/>
      </g>
    </g>
    <g id="Group_461" data-name="Group 461" transform="translate(9.606 11.243)">
      <g id="Group_460" data-name="Group 460">
        <rect id="Rectangle_1154" data-name="Rectangle 1154" class="cls-2" width="1.066" height="1.6"/>
      </g>
    </g>
    <g id="Group_463" data-name="Group 463" transform="translate(2.671 2.712)">
      <g id="Group_462" data-name="Group 462">
        <path id="Path_1075" data-name="Path 1075" class="cls-2" d="M57.268,40.621a13.313,13.313,0,0,0-7.187-.156l.267,1.033a12.251,12.251,0,1,1-8.668,8.3l-1.021-.31a13.313,13.313,0,1,0,16.609-8.867Z" transform="translate(-40.08 -40.046)"/>
      </g>
    </g>
    <g id="Group_465" data-name="Group 465" transform="translate(0 0.13)">
      <g id="Group_464" data-name="Group 464" transform="translate(0 0)">
        <path id="Path_1076" data-name="Path 1076" class="cls-2" d="M21.847,2.33a16,16,0,0,0-4.191-1.021L17.55,2.37A14.92,14.92,0,1,1,2.1,11.762l-.993-.391A16,16,0,1,0,21.847,2.33Z" transform="translate(0 -1.309)"/>
      </g>
    </g>
    <g id="Group_467" data-name="Group 467" transform="translate(12.048 5.38)">
      <g id="Group_466" data-name="Group 466">
        <path id="Path_1077" data-name="Path 1077" class="cls-2" d="M188.041,81.323a4.266,4.266,0,0,0-6.032,6.033,2.927,2.927,0,0,0,2.074.945,4.713,4.713,0,0,0,3.2-1.7C189.78,84.109,189.073,82.355,188.041,81.323Zm-1.51,4.525c-2.026,2.029-3.123,1.4-3.77.754a3.2,3.2,0,1,1,4.524-4.525C187.934,82.725,188.561,83.82,186.531,85.848Z" transform="translate(-180.762 -80.076)"/>
      </g>
    </g>
    <g id="Group_469" data-name="Group 469" transform="translate(17 8.2)">
      <g id="Group_468" data-name="Group 468">
        <rect id="Rectangle_1155" data-name="Rectangle 1155" class="cls-2" width="1.066" height="1.066"/>
      </g>
    </g>
    <g id="Group_471" data-name="Group 471" transform="translate(22.402 17.641)">
      <g id="Group_470" data-name="Group 470">
        <rect id="Rectangle_1156" data-name="Rectangle 1156" class="cls-2" width="1.066" height="1.066"/>
      </g>
    </g>
    <g id="Group_473" data-name="Group 473" transform="translate(12.805 22.691)">
      <g id="Group_472" data-name="Group 472">
        <rect id="Rectangle_1157" data-name="Rectangle 1157" class="cls-2" width="1.066" height="1.066"/>
      </g>
    </g>
    <g id="Group_475" data-name="Group 475" transform="translate(13.338 14.442)">
      <g id="Group_474" data-name="Group 474">
        <rect id="Rectangle_1158" data-name="Rectangle 1158" class="cls-2" width="1.066" height="1.066"/>
      </g>
    </g>
    <g id="Group_477" data-name="Group 477" transform="translate(18.67 13.909)">
      <g id="Group_476" data-name="Group 476">
        <rect id="Rectangle_1159" data-name="Rectangle 1159" class="cls-2" width="1.066" height="1.066"/>
      </g>
    </g>
    <g id="Group_479" data-name="Group 479" transform="translate(21.869 6.9)">
      <g id="Group_478" data-name="Group 478">
        <rect id="Rectangle_1160" data-name="Rectangle 1160" class="cls-2" width="1.066" height="1.066"/>
      </g>
    </g>
    <g id="Group_481" data-name="Group 481" transform="translate(19.736 15.509)">
      <g id="Group_480" data-name="Group 480">
        <path id="Path_1078" data-name="Path 1078" class="cls-2" d="M298.789,232.046c-2.666,0-2.666,2.809-2.666,3.732s0,3.732,2.666,3.732a3.732,3.732,0,1,0,0-7.465Zm0,6.4c-.96,0-1.6-.454-1.6-2.666s.64-2.666,1.6-2.666a2.666,2.666,0,1,1,0,5.332Z" transform="translate(-296.123 -232.046)"/>
      </g>
    </g>
    <g id="Group_483" data-name="Group 483" transform="translate(7.757 16.573)">
      <g id="Group_482" data-name="Group 482">
        <path id="Path_1079" data-name="Path 1079" class="cls-2" d="M123.958,249.762c-2.089-2.089-4.452-2.32-6.17-.6a4.788,4.788,0,1,0,6.772,6.772C126.277,254.214,126.046,251.851,123.958,249.762Zm-.152,5.416a3.722,3.722,0,0,1-5.264-5.264,2.559,2.559,0,0,1,1.839-.829,2.589,2.589,0,0,1,.407.033,5.413,5.413,0,0,1,3.813,3.813A2.5,2.5,0,0,1,123.806,255.178Z" transform="translate(-116.388 -248.017)"/>
      </g>
    </g>
    <g id="Group_485" data-name="Group 485" transform="translate(22.935 11.243)">
      <g id="Group_484" data-name="Group 484">
        <path id="Path_1080" data-name="Path 1080" class="cls-2" d="M345.189,169.112v-1.066h-1.066v1.6a.533.533,0,0,0,.533.533h1.6v-1.066Z" transform="translate(-344.123 -168.046)"/>
      </g>
    </g>
    <g id="Group_487" data-name="Group 487" transform="translate(5.34 14.975)">
      <g id="Group_486" data-name="Group 486">
        <path id="Path_1081" data-name="Path 1081" class="cls-2" d="M81.189,225.112v-1.066H80.123v1.6a.533.533,0,0,0,.533.533h1.6v-1.066Z" transform="translate(-80.123 -224.046)"/>
      </g>
    </g>
    <g id="Group_489" data-name="Group 489" transform="translate(18.137 23.506)">
      <g id="Group_488" data-name="Group 488">
        <path id="Path_1082" data-name="Path 1082" class="cls-2" d="M273.189,352.046v1.066h-1.066v1.066h1.6a.533.533,0,0,0,.533-.533v-1.6Z" transform="translate(-272.123 -352.046)"/>
      </g>
    </g>
  </g>
</svg>
