<svg id="Zoonotik" xmlns="http://www.w3.org/2000/svg" width="75" height="75" viewBox="0 0 40 40">
  <defs>
    <style>
      .cls-1, .cls-2 {
        fill: #fff;
      }

      .cls-1 {
        opacity: 0.3;
      }
    </style>
  </defs>
  <g id="Group_492" data-name="Group 492" transform="translate(4 -41)">
    <path id="Path_1086" data-name="Path 1086" class="cls-2" d="M20.75,62.938h4.3l-5.321-11.1A10.38,10.38,0,1,0,3.245,63.885a8.443,8.443,0,0,1,2.443,6.089V74.25h9.375V68.625H20.75ZM18.875,66.75H13.188v5.625H11.313V65.813a2.882,2.882,0,0,1,2.813-2.875h4.75Zm-4.75-5.687a4.738,4.738,0,0,0-4.687,4.75v6.563H7.563v-2.4A10.206,10.206,0,0,0,4.53,62.519a8.5,8.5,0,1,1,13.511-9.87l4.033,8.413Z"/>
    <path id="Path_1087" data-name="Path 1087" class="cls-2" d="M424.813,227a2.813,2.813,0,1,0,2.813,2.813A2.816,2.816,0,0,0,424.813,227Zm0,3.75a.938.938,0,1,1,.938-.937A.939.939,0,0,1,424.813,230.75Z" transform="translate(-395.625 -169.688)"/>
    <path id="Path_1088" data-name="Path 1088" class="cls-2" d="M369.225,49.476l1.44-1.44-1.326-1.326-1.44,1.44a2.8,2.8,0,0,0-.274-.114V46H365.75v2.036a2.808,2.808,0,0,0-.274.114l-1.44-1.44-1.326,1.326,1.44,1.44a2.8,2.8,0,0,0-.114.274H362v1.875h2.036a2.8,2.8,0,0,0,.114.274l-1.44,1.44,1.326,1.326,1.44-1.44a2.8,2.8,0,0,0,.274.114v2.036h1.875V53.339a2.807,2.807,0,0,0,.274-.114l1.44,1.44,1.326-1.326-1.44-1.44a2.8,2.8,0,0,0,.114-.274h2.036V49.75h-2.036A2.8,2.8,0,0,0,369.225,49.476Zm-2.538,2.149a.938.938,0,1,1,.938-.937A.939.939,0,0,1,366.688,51.625Z" transform="translate(-339.375)"/>
    <path id="Path_1089" data-name="Path 1089" class="cls-2" d="M339.225,411.476l1.44-1.44-1.326-1.326-1.44,1.44a2.807,2.807,0,0,0-.274-.114V408H335.75v2.036a2.808,2.808,0,0,0-.274.114l-1.44-1.44-1.326,1.326,1.44,1.44a2.8,2.8,0,0,0-.114.274H332v1.875h2.036a2.805,2.805,0,0,0,.114.274l-1.44,1.44,1.326,1.326,1.44-1.44a2.807,2.807,0,0,0,.274.114v2.036h1.875v-2.036a2.816,2.816,0,0,0,.274-.114l1.44,1.44,1.326-1.326-1.44-1.44a2.805,2.805,0,0,0,.114-.274h2.036V411.75h-2.036a2.8,2.8,0,0,0-.114-.274Zm-2.538,2.149a.938.938,0,1,1,.938-.937A.939.939,0,0,1,336.688,413.625Z" transform="translate(-311.25 -339.375)"/>
  </g>
</svg>
